<?xml version="1.0" standalone="no"?>
<!DOCTYPE svg PUBLIC "-//W3C//DTD SVG 20010904//EN"
 "http://www.w3.org/TR/2001/REC-SVG-20010904/DTD/svg10.dtd">
<svg version="1.0" xmlns="http://www.w3.org/2000/svg"
 width="400.000000pt" height="400.000000pt" viewBox="0 0 400.000000 400.000000"
 preserveAspectRatio="xMidYMid meet">
<metadata>
Created by potrace 1.11, written by Peter Selinger 2001-2013
</metadata>
<g transform="translate(0.000000,400.000000) scale(0.100000,-0.100000)"
fill="#000000" stroke="none">
<path d="M1531 3389 c-134 -26 -181 -42 -303 -99 -220 -103 -433 -313 -545
-535 -59 -116 -102 -261 -119 -393 -7 -63 -5 -244 5 -302 7 -46 6 -56 -8 -67
-9 -7 -20 -13 -24 -13 -5 0 -40 -20 -78 -45 -77 -50 -151 -120 -199 -190 -33
-48 -88 -159 -94 -191 -3 -11 -10 -41 -16 -69 -22 -96 -13 -240 21 -344 68
-205 230 -368 435 -437 40 -13 92 -26 116 -30 36 -4 245 -8 326 -5 l22 1 0
424 0 423 293 -1 292 -1 2 -330 1 -329 -28 -29 c-51 -52 -58 -109 -23 -170 49
-83 175 -84 229 -2 34 52 21 136 -27 177 -20 17 -20 28 -20 305 0 158 0 309 0
334 l1 47 237 -1 236 -1 34 -37 c40 -44 74 -58 130 -54 53 4 76 17 110 62 23
30 28 46 28 92 -1 144 -162 204 -264 99 l-41 -41 -226 -1 c-124 0 -231 2 -236
5 -10 7 -15 656 -5 666 3 2 137 4 299 4 432 0 406 2 412 -18 9 -27 67 -60 114
-66 116 -13 204 113 152 217 -51 103 -179 121 -253 36 l-32 -37 -413 1 -412 1
0 -105 c-1 -58 -1 -239 -1 -402 l0 -298 -22 -1 c-12 0 -172 -1 -354 -1 l-333
-1 0 -423 0 -424 -42 -1 c-62 -1 -157 2 -176 6 -209 40 -376 185 -448 387 -24
69 -34 197 -20 263 28 137 78 229 176 323 57 55 184 126 245 138 19 3 35 7 35
8 0 0 -7 35 -16 76 -38 184 -35 335 11 507 36 135 106 279 185 377 77 96 201
207 295 263 54 33 172 86 220 100 124 35 182 44 300 46 139 2 190 -3 287 -29
190 -49 374 -158 508 -301 l67 -72 89 0 c49 -1 100 -3 114 -6 127 -24 222 -64
310 -128 239 -174 345 -475 271 -761 -21 -78 -20 -96 2 -96 18 0 106 -49 162
-90 105 -78 180 -202 211 -350 7 -35 7 -148 0 -185 -38 -190 -145 -333 -311
-415 -44 -22 -104 -45 -134 -50 -30 -6 -237 -10 -470 -10 -361 0 -420 -2 -439
-16 -42 -29 -20 -103 31 -105 125 -3 825 1 866 6 158 18 352 137 455 278 121
166 159 392 101 594 -46 157 -139 285 -276 377 -72 48 -80 56 -74 66 12 19 19
107 18 205 -3 213 -85 403 -239 559 -159 161 -349 243 -574 248 -54 2 -56 3
-135 77 -44 42 -100 89 -125 106 -25 16 -47 32 -50 35 -19 19 -180 98 -250
122 -131 45 -218 59 -380 63 -90 2 -151 -3 -219 -16z m1147 -959 c28 -26 28
-69 2 -98 -28 -30 -71 -28 -100 3 -21 23 -22 28 -11 64 6 22 19 42 29 44 37
10 59 6 80 -13z m-226 -794 c38 -17 40 -85 4 -115 -44 -37 -120 9 -110 66 9
50 54 71 106 49z m-701 -866 c22 -12 26 -59 7 -78 -15 -15 -61 -15 -76 0 -17
17 -15 54 4 72 18 19 38 20 65 6z"/>
</g>
</svg>
